solid plain_trophy_base_140804
facet normal 0.632455532033678 0.632455532033674 -0.447213595499958
outer loop
vertex 28.9215728752538 31.75 23.4
vertex 32.75 29.3357864376269 25.4
vertex 31.75 28.9215728752538 23.4
endloop
endfacet
facet normal 0.632455532033678 0.632455532033674 -0.447213595499958
outer loop
vertex 32.75 29.3357864376269 25.4
vertex 28.9215728752538 31.75 23.4
vertex 29.3357864376269 32.75 25.4
endloop
endfacet
facet normal 1.16387670575146e-018 1.16387670575146e-018 1.0
outer loop
vertex -27.4552568644531 -28.21 2.70000000000002
vertex -28.2100000000001 27.455256864453 2.70000000000002
vertex -28.2100000000001 -27.455256864453 2.70000000000002
endloop
endfacet
facet normal 1.16387670575146e-018 1.16387670575146e-018 1.0
outer loop
vertex -28.2100000000001 27.455256864453 2.70000000000002
vertex -27.4552568644531 -28.21 2.70000000000002
vertex -27.4552568644531 28.21 2.70000000000002
endloop
endfacet
facet normal 1.16387670575146e-018 1.16387670575146e-018 1.0
outer loop
vertex -27.4552568644531 28.21 2.70000000000002
vertex -27.4552568644531 -28.21 2.70000000000002
vertex 27.4552568644531 -28.21 2.70000000000002
endloop
endfacet
facet normal 1.16387670575146e-018 1.16387670575146e-018 1.0
outer loop
vertex -27.4552568644531 28.21 2.70000000000002
vertex 27.4552568644531 -28.21 2.70000000000002
vertex 27.4552568644531 28.21 2.70000000000002
endloop
endfacet
facet normal 1.16387670575146e-018 1.16387670575146e-018 1.0
outer loop
vertex 27.4552568644531 28.21 2.70000000000002
vertex 27.4552568644531 -28.21 2.70000000000002
vertex 28.2100000000001 -27.455256864453 2.70000000000002
endloop
endfacet
facet normal 1.16387670575146e-018 1.16387670575146e-018 1.0
outer loop
vertex 27.4552568644531 28.21 2.70000000000002
vertex 28.2100000000001 -27.455256864453 2.70000000000002
vertex 28.2100000000001 27.455256864453 2.70000000000002
endloop
endfacet
facet normal 0.70710678118655 0.707106781186545 0.0
outer loop
vertex 28.9215728752538 31.75 2.00000000000002
vertex 31.75 28.9215728752538 23.4
vertex 31.75 28.9215728752538 2.00000000000002
endloop
endfacet
facet normal 0.70710678118655 0.707106781186545 0.0
outer loop
vertex 31.75 28.9215728752538 23.4
vertex 28.9215728752538 31.75 2.00000000000002
vertex 28.9215728752538 31.75 23.4
endloop
endfacet
facet normal 0.70710678118655 -0.707106781186545 0.0
outer loop
vertex 31.75 -28.9215728752538 2.00000000000002
vertex 28.9215728752538 -31.75 23.4
vertex 28.9215728752538 -31.75 2.00000000000002
endloop
endfacet
facet normal 0.70710678118655 -0.707106781186545 0.0
outer loop
vertex 28.9215728752538 -31.75 23.4
vertex 31.75 -28.9215728752538 2.00000000000002
vertex 31.75 -28.9215728752538 23.4
endloop
endfacet
facet normal -0.894427190999916 0.0 0.447213595499957
outer loop
vertex 29.2100000000001 27.8694704268261 4.70000000000002
vertex 28.2100000000001 -27.455256864453 2.70000000000002
vertex 29.2100000000001 -27.8694704268261 4.70000000000002
endloop
endfacet
facet normal -0.894427190999916 0.0 0.447213595499957
outer loop
vertex 28.2100000000001 -27.455256864453 2.70000000000002
vertex 29.2100000000001 27.8694704268261 4.70000000000002
vertex 28.2100000000001 27.455256864453 2.70000000000002
endloop
endfacet
facet normal 0.632455532033678 -0.632455532033674 -0.447213595499958
outer loop
vertex 28.9215728752538 -31.75 23.4
vertex 32.75 -29.3357864376269 25.4
vertex 29.3357864376269 -32.75 25.4
endloop
endfacet
facet normal 0.632455532033678 -0.632455532033674 -0.447213595499958
outer loop
vertex 32.75 -29.3357864376269 25.4
vertex 28.9215728752538 -31.75 23.4
vertex 31.75 -28.9215728752538 23.4
endloop
endfacet
facet normal 0.707106781186539 -0.707106781186556 8.66193345659014e-016
outer loop
vertex -27.8694704268262 29.21 25.4
vertex -29.2100000000001 27.8694704268261 4.70000000000002
vertex -27.8694704268261 29.21 4.70000000000002
endloop
endfacet
facet normal 0.707106781186539 -0.707106781186556 8.66193345659014e-016
outer loop
vertex -29.2100000000001 27.8694704268261 4.70000000000002
vertex -27.8694704268262 29.21 25.4
vertex -29.2100000000001 27.8694704268261 25.4
endloop
endfacet
facet normal -0.894427190999916 -6.49637424232977e-032 -0.447213595499957
outer loop
vertex -32.75 29.3357864376269 25.4
vertex -31.75 -28.9215728752538 23.4
vertex -32.75 -29.3357864376269 25.4
endloop
endfacet
facet normal -0.894427190999916 -6.49637424232977e-032 -0.447213595499957
outer loop
vertex -31.75 -28.9215728752538 23.4
vertex -32.75 29.3357864376269 25.4
vertex -31.75 28.9215728752538 23.4
endloop
endfacet
facet normal -0.70710678118655 0.707106781186545 0.0
outer loop
vertex -28.9215728752538 31.75 23.4
vertex -31.75 28.9215728752538 2.00000000000002
vertex -31.75 28.9215728752538 23.4
endloop
endfacet
facet normal -0.70710678118655 0.707106781186545 0.0
outer loop
vertex -31.75 28.9215728752538 2.00000000000002
vertex -28.9215728752538 31.75 23.4
vertex -28.9215728752538 31.75 2.00000000000002
endloop
endfacet
facet normal 0.632455532033669 -0.632455532033685 0.447213595499955
outer loop
vertex -27.8694704268261 29.21 4.70000000000002
vertex -28.2100000000001 27.455256864453 2.70000000000002
vertex -27.4552568644531 28.21 2.70000000000002
endloop
endfacet
facet normal 0.632455532033669 -0.632455532033685 0.447213595499955
outer loop
vertex -28.2100000000001 27.455256864453 2.70000000000002
vertex -27.8694704268261 29.21 4.70000000000002
vertex -29.2100000000001 27.8694704268261 4.70000000000002
endloop
endfacet
facet normal -0.632455532033678 0.632455532033674 -0.447213595499958
outer loop
vertex -32.75 29.3357864376269 25.4
vertex -28.9215728752538 31.75 23.4
vertex -31.75 28.9215728752538 23.4
endloop
endfacet
facet normal -0.632455532033678 0.632455532033674 -0.447213595499958
outer loop
vertex -28.9215728752538 31.75 23.4
vertex -32.75 29.3357864376269 25.4
vertex -29.3357864376269 32.75 25.4
endloop
endfacet
facet normal -6.0699987751806e-019 -0.894427190999916 -0.447213595499957
outer loop
vertex 28.9215728752538 -31.75 2.00000000000002
vertex -28.5073593128807 -30.75 1.72136743021559e-014
vertex 28.5073593128807 -30.75 1.7056956833367e-014
endloop
endfacet
facet normal -6.0699987751806e-019 -0.894427190999916 -0.447213595499957
outer loop
vertex -28.5073593128807 -30.75 1.72136743021559e-014
vertex 28.9215728752538 -31.75 2.00000000000002
vertex -28.9215728752538 -31.75 2.00000000000002
endloop
endfacet
facet normal -6.06999877518059e-019 0.894427190999916 -0.447213595499957
outer loop
vertex -28.5073593128807 30.75 1.73703917709447e-014
vertex 28.9215728752538 31.75 2.00000000000002
vertex 28.5073593128807 30.75 1.72136743021559e-014
endloop
endfacet
facet normal -6.06999877518059e-019 0.894427190999916 -0.447213595499957
outer loop
vertex 28.9215728752538 31.75 2.00000000000002
vertex -28.5073593128807 30.75 1.73703917709447e-014
vertex -28.9215728752538 31.75 2.00000000000002
endloop
endfacet
facet normal 1.0 0.0 0.0
outer loop
vertex 31.75 28.9215728752538 2.00000000000002
vertex 31.75 -28.9215728752538 23.4
vertex 31.75 -28.9215728752538 2.00000000000002
endloop
endfacet
facet normal 1.0 0.0 0.0
outer loop
vertex 31.75 -28.9215728752538 23.4
vertex 31.75 28.9215728752538 2.00000000000002
vertex 31.75 28.9215728752538 23.4
endloop
endfacet
facet normal -1.76041700528455e-032 -0.894427190999916 -0.447213595499957
outer loop
vertex 29.3357864376269 -32.75 25.4
vertex -28.9215728752538 -31.75 23.4
vertex 28.9215728752538 -31.75 23.4
endloop
endfacet
facet normal -1.76041700528455e-032 -0.894427190999916 -0.447213595499957
outer loop
vertex -28.9215728752538 -31.75 23.4
vertex 29.3357864376269 -32.75 25.4
vertex -29.3357864376269 -32.75 25.4
endloop
endfacet
facet normal -0.632455532033669 0.632455532033685 0.447213595499955
outer loop
vertex 27.8694704268261 -29.21 4.70000000000002
vertex 28.2100000000001 -27.455256864453 2.70000000000002
vertex 27.4552568644531 -28.21 2.70000000000002
endloop
endfacet
facet normal -0.632455532033669 0.632455532033685 0.447213595499955
outer loop
vertex 28.2100000000001 -27.455256864453 2.70000000000002
vertex 27.8694704268261 -29.21 4.70000000000002
vertex 29.2100000000001 -27.8694704268261 4.70000000000002
endloop
endfacet
facet normal 6.54048224490096e-019 -0.894427190999916 0.447213595499957
outer loop
vertex 27.8694704268261 29.21 4.70000000000002
vertex -27.4552568644531 28.21 2.70000000000002
vertex 27.4552568644531 28.21 2.70000000000002
endloop
endfacet
facet normal 6.54048224490096e-019 -0.894427190999916 0.447213595499957
outer loop
vertex -27.4552568644531 28.21 2.70000000000002
vertex 27.8694704268261 29.21 4.70000000000002
vertex -27.8694704268261 29.21 4.70000000000002
endloop
endfacet
facet normal -0.632455532033678 0.632455532033674 -0.447213595499958
outer loop
vertex -31.75 28.9215728752538 2.00000000000002
vertex -28.5073593128807 30.75 1.73703917709447e-014
vertex -30.75 28.5073593128807 1.72136743021559e-014
endloop
endfacet
facet normal -0.632455532033678 0.632455532033674 -0.447213595499958
outer loop
vertex -28.5073593128807 30.75 1.73703917709447e-014
vertex -31.75 28.9215728752538 2.00000000000002
vertex -28.9215728752538 31.75 2.00000000000002
endloop
endfacet
facet normal -0.707106781186539 -0.707106781186556 8.66193345659014e-016
outer loop
vertex 29.2100000000001 27.8694704268261 25.4
vertex 27.8694704268261 29.21 4.70000000000002
vertex 29.2100000000001 27.8694704268261 4.70000000000002
endloop
endfacet
facet normal -0.707106781186539 -0.707106781186556 8.66193345659014e-016
outer loop
vertex 27.8694704268261 29.21 4.70000000000002
vertex 29.2100000000001 27.8694704268261 25.4
vertex 27.8694704268262 29.21 25.4
endloop
endfacet
facet normal 0.0 -1.0 0.0
outer loop
vertex 27.8694704268262 29.21 25.4
vertex -27.8694704268261 29.21 4.70000000000002
vertex 27.8694704268261 29.21 4.70000000000002
endloop
endfacet
facet normal 0.0 -1.0 0.0
outer loop
vertex -27.8694704268261 29.21 4.70000000000002
vertex 27.8694704268262 29.21 25.4
vertex -27.8694704268262 29.21 25.4
endloop
endfacet
facet normal 1.0 0.0 0.0
outer loop
vertex -29.2100000000001 -27.8694704268261 4.70000000000002
vertex -29.2100000000001 27.8694704268261 25.4
vertex -29.2100000000001 -27.8694704268261 25.4
endloop
endfacet
facet normal 1.0 0.0 0.0
outer loop
vertex -29.2100000000001 27.8694704268261 25.4
vertex -29.2100000000001 -27.8694704268261 4.70000000000002
vertex -29.2100000000001 27.8694704268261 4.70000000000002
endloop
endfacet
facet normal -9.85015059894645e-018 -3.38228063971848e-018 -1.0
outer loop
vertex -28.5073593128807 30.75 1.73703917709447e-014
vertex -30.75 -28.5073593128807 1.7056956833367e-014
vertex -30.75 28.5073593128807 1.72136743021559e-014
endloop
endfacet
facet normal -9.85015059894645e-018 -3.38228063971848e-018 -1.0
outer loop
vertex -30.75 -28.5073593128807 1.7056956833367e-014
vertex -28.5073593128807 30.75 1.73703917709447e-014
vertex -28.5073593128807 -30.75 1.72136743021559e-014
endloop
endfacet
facet normal -9.85015059894645e-018 -3.38228063971848e-018 -1.0
outer loop
vertex -28.5073593128807 -30.75 1.72136743021559e-014
vertex -28.5073593128807 30.75 1.73703917709447e-014
vertex 28.5073593128807 30.75 1.72136743021559e-014
endloop
endfacet
facet normal -9.85015059894645e-018 -3.38228063971848e-018 -1.0
outer loop
vertex -28.5073593128807 -30.75 1.72136743021559e-014
vertex 28.5073593128807 30.75 1.72136743021559e-014
vertex 28.5073593128807 -30.75 1.7056956833367e-014
endloop
endfacet
facet normal -9.85015059894645e-018 -3.38228063971848e-018 -1.0
outer loop
vertex 28.5073593128807 -30.75 1.7056956833367e-014
vertex 28.5073593128807 30.75 1.72136743021559e-014
vertex 30.75 28.5073593128807 1.7056956833367e-014
endloop
endfacet
facet normal -9.85015059894645e-018 -3.38228063971848e-018 -1.0
outer loop
vertex 28.5073593128807 -30.75 1.7056956833367e-014
vertex 30.75 28.5073593128807 1.7056956833367e-014
vertex 30.75 -28.5073593128807 1.69002393645782e-014
endloop
endfacet
facet normal -0.632455532033678 -0.632455532033674 -0.447213595499958
outer loop
vertex -32.75 -29.3357864376269 25.4
vertex -28.9215728752538 -31.75 23.4
vertex -29.3357864376269 -32.75 25.4
endloop
endfacet
facet normal -0.632455532033678 -0.632455532033674 -0.447213595499958
outer loop
vertex -28.9215728752538 -31.75 23.4
vertex -32.75 -29.3357864376269 25.4
vertex -31.75 -28.9215728752538 23.4
endloop
endfacet
facet normal 0.707106781186539 0.707106781186556 8.66193345659014e-016
outer loop
vertex -29.2100000000001 -27.8694704268261 25.4
vertex -27.8694704268261 -29.21 4.70000000000002
vertex -29.2100000000001 -27.8694704268261 4.70000000000002
endloop
endfacet
facet normal 0.707106781186539 0.707106781186556 8.66193345659014e-016
outer loop
vertex -27.8694704268261 -29.21 4.70000000000002
vertex -29.2100000000001 -27.8694704268261 25.4
vertex -27.8694704268262 -29.21 25.4
endloop
endfacet
facet normal -3.69931940837925e-018 -1.63543253010752e-018 1.0
outer loop
vertex -29.3357864376269 -32.75 25.4
vertex -32.75 29.3357864376269 25.4
vertex -32.75 -29.3357864376269 25.4
endloop
endfacet
facet normal -3.69931940837925e-018 -1.63543253010752e-018 1.0
outer loop
vertex -32.75 29.3357864376269 25.4
vertex -29.3357864376269 -32.75 25.4
vertex -29.3357864376269 32.75 25.4
endloop
endfacet
facet normal -3.69931940837925e-018 -1.63543253010752e-018 1.0
outer loop
vertex -29.3357864376269 32.75 25.4
vertex -29.3357864376269 -32.75 25.4
vertex -29.2100000000001 -27.8694704268261 25.4
endloop
endfacet
facet normal -3.69931940837925e-018 -1.63543253010752e-018 1.0
outer loop
vertex -29.2100000000001 -27.8694704268261 25.4
vertex -29.3357864376269 -32.75 25.4
vertex -27.8694704268262 -29.21 25.4
endloop
endfacet
facet normal -3.69931940837925e-018 -1.63543253010752e-018 1.0
outer loop
vertex -27.8694704268262 -29.21 25.4
vertex -29.3357864376269 -32.75 25.4
vertex 29.3357864376269 -32.75 25.4
endloop
endfacet
facet normal -3.69931940837925e-018 -1.63543253010752e-018 1.0
outer loop
vertex -27.8694704268262 -29.21 25.4
vertex 29.3357864376269 -32.75 25.4
vertex 27.8694704268262 -29.21 25.4
endloop
endfacet
facet normal -3.69931940837925e-018 -1.63543253010752e-018 1.0
outer loop
vertex 27.8694704268262 -29.21 25.4
vertex 29.3357864376269 -32.75 25.4
vertex 29.2100000000001 -27.8694704268261 25.4
endloop
endfacet
facet normal -3.69931940837925e-018 -1.63543253010752e-018 1.0
outer loop
vertex 29.2100000000001 -27.8694704268261 25.4
vertex 29.3357864376269 -32.75 25.4
vertex 29.2100000000001 27.8694704268261 25.4
endloop
endfacet
facet normal -3.69931940837925e-018 -1.63543253010752e-018 1.0
outer loop
vertex -29.3357864376269 32.75 25.4
vertex -27.8694704268262 29.21 25.4
vertex 29.3357864376269 32.75 25.4
endloop
endfacet
facet normal -3.69931940837925e-018 -1.63543253010752e-018 1.0
outer loop
vertex -27.8694704268262 29.21 25.4
vertex -29.3357864376269 32.75 25.4
vertex -29.2100000000001 27.8694704268261 25.4
endloop
endfacet
facet normal -3.69931940837925e-018 -1.63543253010752e-018 1.0
outer loop
vertex -29.2100000000001 27.8694704268261 25.4
vertex -29.3357864376269 32.75 25.4
vertex -29.2100000000001 -27.8694704268261 25.4
endloop
endfacet
facet normal -3.69931940837925e-018 -1.63543253010752e-018 1.0
outer loop
vertex 29.3357864376269 32.75 25.4
vertex -27.8694704268262 29.21 25.4
vertex 27.8694704268262 29.21 25.4
endloop
endfacet
facet normal -3.69931940837925e-018 -1.63543253010752e-018 1.0
outer loop
vertex 29.3357864376269 32.75 25.4
vertex 27.8694704268262 29.21 25.4
vertex 29.2100000000001 27.8694704268261 25.4
endloop
endfacet
facet normal -3.69931940837925e-018 -1.63543253010752e-018 1.0
outer loop
vertex 29.3357864376269 32.75 25.4
vertex 29.2100000000001 27.8694704268261 25.4
vertex 29.3357864376269 -32.75 25.4
endloop
endfacet
facet normal -3.69931940837925e-018 -1.63543253010752e-018 1.0
outer loop
vertex 29.3357864376269 32.75 25.4
vertex 29.3357864376269 -32.75 25.4
vertex 32.75 -29.3357864376269 25.4
endloop
endfacet
facet normal -3.69931940837925e-018 -1.63543253010752e-018 1.0
outer loop
vertex 29.3357864376269 32.75 25.4
vertex 32.75 -29.3357864376269 25.4
vertex 32.75 29.3357864376269 25.4
endloop
endfacet
facet normal -0.707106781186539 0.707106781186556 8.66193345659014e-016
outer loop
vertex 27.8694704268262 -29.21 25.4
vertex 29.2100000000001 -27.8694704268261 4.70000000000002
vertex 27.8694704268261 -29.21 4.70000000000002
endloop
endfacet
facet normal -0.707106781186539 0.707106781186556 8.66193345659014e-016
outer loop
vertex 29.2100000000001 -27.8694704268261 4.70000000000002
vertex 27.8694704268262 -29.21 25.4
vertex 29.2100000000001 -27.8694704268261 25.4
endloop
endfacet
facet normal -0.632455532033669 -0.632455532033685 0.447213595499955
outer loop
vertex 29.2100000000001 27.8694704268261 4.70000000000002
vertex 27.4552568644531 28.21 2.70000000000002
vertex 28.2100000000001 27.455256864453 2.70000000000002
endloop
endfacet
facet normal -0.632455532033669 -0.632455532033685 0.447213595499955
outer loop
vertex 27.4552568644531 28.21 2.70000000000002
vertex 29.2100000000001 27.8694704268261 4.70000000000002
vertex 27.8694704268261 29.21 4.70000000000002
endloop
endfacet
facet normal 0.0 1.0 0.0
outer loop
vertex -28.9215728752538 31.75 23.4
vertex 28.9215728752538 31.75 2.00000000000002
vertex -28.9215728752538 31.75 2.00000000000002
endloop
endfacet
facet normal 0.0 1.0 0.0
outer loop
vertex 28.9215728752538 31.75 2.00000000000002
vertex -28.9215728752538 31.75 23.4
vertex 28.9215728752538 31.75 23.4
endloop
endfacet
facet normal 0.894427190999916 6.06999877518133e-019 -0.447213595499957
outer loop
vertex 30.75 -28.5073593128807 1.69002393645782e-014
vertex 31.75 28.9215728752538 2.00000000000002
vertex 31.75 -28.9215728752538 2.00000000000002
endloop
endfacet
facet normal 0.894427190999916 6.06999877518133e-019 -0.447213595499957
outer loop
vertex 31.75 28.9215728752538 2.00000000000002
vertex 30.75 -28.5073593128807 1.69002393645782e-014
vertex 30.75 28.5073593128807 1.7056956833367e-014
endloop
endfacet
facet normal 0.632455532033678 0.632455532033674 -0.447213595499958
outer loop
vertex 28.5073593128807 30.75 1.72136743021559e-014
vertex 31.75 28.9215728752538 2.00000000000002
vertex 30.75 28.5073593128807 1.7056956833367e-014
endloop
endfacet
facet normal 0.632455532033678 0.632455532033674 -0.447213595499958
outer loop
vertex 31.75 28.9215728752538 2.00000000000002
vertex 28.5073593128807 30.75 1.72136743021559e-014
vertex 28.9215728752538 31.75 2.00000000000002
endloop
endfacet
facet normal 0.632455532033678 -0.632455532033674 -0.447213595499958
outer loop
vertex 28.5073593128807 -30.75 1.7056956833367e-014
vertex 31.75 -28.9215728752538 2.00000000000002
vertex 28.9215728752538 -31.75 2.00000000000002
endloop
endfacet
facet normal 0.632455532033678 -0.632455532033674 -0.447213595499958
outer loop
vertex 31.75 -28.9215728752538 2.00000000000002
vertex 28.5073593128807 -30.75 1.7056956833367e-014
vertex 30.75 -28.5073593128807 1.69002393645782e-014
endloop
endfacet
facet normal 0.632455532033669 0.632455532033685 0.447213595499955
outer loop
vertex -29.2100000000001 -27.8694704268261 4.70000000000002
vertex -27.4552568644531 -28.21 2.70000000000002
vertex -28.2100000000001 -27.455256864453 2.70000000000002
endloop
endfacet
facet normal 0.632455532033669 0.632455532033685 0.447213595499955
outer loop
vertex -27.4552568644531 -28.21 2.70000000000002
vertex -29.2100000000001 -27.8694704268261 4.70000000000002
vertex -27.8694704268261 -29.21 4.70000000000002
endloop
endfacet
facet normal -0.70710678118655 -0.707106781186545 0.0
outer loop
vertex -31.75 -28.9215728752538 23.4
vertex -28.9215728752538 -31.75 2.00000000000002
vertex -28.9215728752538 -31.75 23.4
endloop
endfacet
facet normal -0.70710678118655 -0.707106781186545 0.0
outer loop
vertex -28.9215728752538 -31.75 2.00000000000002
vertex -31.75 -28.9215728752538 23.4
vertex -31.75 -28.9215728752538 2.00000000000002
endloop
endfacet
facet normal 0.894427190999916 6.91549516118975e-032 -0.447213595499957
outer loop
vertex 31.75 -28.9215728752538 23.4
vertex 32.75 29.3357864376269 25.4
vertex 32.75 -29.3357864376269 25.4
endloop
endfacet
facet normal 0.894427190999916 6.91549516118975e-032 -0.447213595499957
outer loop
vertex 32.75 29.3357864376269 25.4
vertex 31.75 -28.9215728752538 23.4
vertex 31.75 28.9215728752538 23.4
endloop
endfacet
facet normal 3.34479231004065e-032 0.894427190999916 -0.447213595499957
outer loop
vertex -29.3357864376269 32.75 25.4
vertex 28.9215728752538 31.75 23.4
vertex -28.9215728752538 31.75 23.4
endloop
endfacet
facet normal 3.34479231004065e-032 0.894427190999916 -0.447213595499957
outer loop
vertex 28.9215728752538 31.75 23.4
vertex -29.3357864376269 32.75 25.4
vertex 29.3357864376269 32.75 25.4
endloop
endfacet
facet normal 0.0 -1.0 0.0
outer loop
vertex 28.9215728752538 -31.75 23.4
vertex -28.9215728752538 -31.75 2.00000000000002
vertex 28.9215728752538 -31.75 2.00000000000002
endloop
endfacet
facet normal 0.0 -1.0 0.0
outer loop
vertex -28.9215728752538 -31.75 2.00000000000002
vertex 28.9215728752538 -31.75 23.4
vertex -28.9215728752538 -31.75 23.4
endloop
endfacet
facet normal 0.0 1.0 0.0
outer loop
vertex -27.8694704268262 -29.21 25.4
vertex 27.8694704268261 -29.21 4.70000000000002
vertex -27.8694704268261 -29.21 4.70000000000002
endloop
endfacet
facet normal 0.0 1.0 0.0
outer loop
vertex 27.8694704268261 -29.21 4.70000000000002
vertex -27.8694704268262 -29.21 25.4
vertex 27.8694704268262 -29.21 25.4
endloop
endfacet
facet normal -0.632455532033678 -0.632455532033674 -0.447213595499958
outer loop
vertex -31.75 -28.9215728752538 2.00000000000002
vertex -28.5073593128807 -30.75 1.72136743021559e-014
vertex -28.9215728752538 -31.75 2.00000000000002
endloop
endfacet
facet normal -0.632455532033678 -0.632455532033674 -0.447213595499958
outer loop
vertex -28.5073593128807 -30.75 1.72136743021559e-014
vertex -31.75 -28.9215728752538 2.00000000000002
vertex -30.75 -28.5073593128807 1.7056956833367e-014
endloop
endfacet
facet normal -1.0 0.0 0.0
outer loop
vertex 29.2100000000001 27.8694704268261 25.4
vertex 29.2100000000001 -27.8694704268261 4.70000000000002
vertex 29.2100000000001 -27.8694704268261 25.4
endloop
endfacet
facet normal -1.0 0.0 0.0
outer loop
vertex 29.2100000000001 -27.8694704268261 4.70000000000002
vertex 29.2100000000001 27.8694704268261 25.4
vertex 29.2100000000001 27.8694704268261 4.70000000000002
endloop
endfacet
facet normal -1.0 0.0 0.0
outer loop
vertex -31.75 28.9215728752538 23.4
vertex -31.75 -28.9215728752538 2.00000000000002
vertex -31.75 -28.9215728752538 23.4
endloop
endfacet
facet normal -1.0 0.0 0.0
outer loop
vertex -31.75 -28.9215728752538 2.00000000000002
vertex -31.75 28.9215728752538 23.4
vertex -31.75 28.9215728752538 2.00000000000002
endloop
endfacet
facet normal 0.894427190999916 0.0 0.447213595499957
outer loop
vertex -28.2100000000001 -27.455256864453 2.70000000000002
vertex -29.2100000000001 27.8694704268261 4.70000000000002
vertex -29.2100000000001 -27.8694704268261 4.70000000000002
endloop
endfacet
facet normal 0.894427190999916 0.0 0.447213595499957
outer loop
vertex -29.2100000000001 27.8694704268261 4.70000000000002
vertex -28.2100000000001 -27.455256864453 2.70000000000002
vertex -28.2100000000001 27.455256864453 2.70000000000002
endloop
endfacet
facet normal -0.894427190999916 6.06999877518063e-019 -0.447213595499957
outer loop
vertex -31.75 28.9215728752538 2.00000000000002
vertex -30.75 -28.5073593128807 1.7056956833367e-014
vertex -31.75 -28.9215728752538 2.00000000000002
endloop
endfacet
facet normal -0.894427190999916 6.06999877518063e-019 -0.447213595499957
outer loop
vertex -30.75 -28.5073593128807 1.7056956833367e-014
vertex -31.75 28.9215728752538 2.00000000000002
vertex -30.75 28.5073593128807 1.72136743021559e-014
endloop
endfacet
facet normal 1.30809644898049e-018 0.894427190999916 0.447213595499957
outer loop
vertex -27.8694704268261 -29.21 4.70000000000002
vertex 27.4552568644531 -28.21 2.70000000000002
vertex -27.4552568644531 -28.21 2.70000000000002
endloop
endfacet
facet normal 1.30809644898049e-018 0.894427190999916 0.447213595499957
outer loop
vertex 27.4552568644531 -28.21 2.70000000000002
vertex -27.8694704268261 -29.21 4.70000000000002
vertex 27.8694704268261 -29.21 4.70000000000002
endloop
endfacet
endsolid plain_trophy_base_140804
